<svg xmlns="http://www.w3.org/2000/svg" viewBox="0 0 256.14 297.31"><defs><style>.a{fill:#fff;}</style></defs><title>jslogo</title><path class="a" d="M582.2,1166.8c15.72-5.14,26.51-9.33,42.91-12.55,4.11-14.73,16-27.6,30.45-29.68,18-2.63,32.83,13.27,32.87,33.63a473,473,0,0,0-48.82,4.69q-8.07,1.21-16.06,2.7c-16,3-26.39,6.79-41.77,11.46,0,57.4,52.05,122.63,123.13,122.63-.06-77.1-.11-177.39-.19-297.32C642.76,1003.77,582.2,1084.56,582.2,1166.8Z" transform="translate(-581.78 -1002.36)"/><path class="a" d="M796.15,1165.59q-8-1.48-16.06-2.7a472.82,472.82,0,0,0-48.81-4.69c0-20.36,14.86-36.26,32.87-33.63,14.41,2.08,26.34,15,30.45,29.68,16.41,3.22,27.19,7.41,42.91,12.55,0-82.24-60.55-163-122.53-164.44,0,71.37-.08,134.63-.11,191.85q16.23.12,32.4,1.08c-.11,20.07-14.6,35.78-32.43,35.85,0,24.6,0,47.51,0,68.54,71.08,0,123.12-65.23,123.12-122.63C822.54,1172.38,812.14,1168.56,796.15,1165.59Z" transform="translate(-581.78 -1002.36)"/></svg>